HIERARCHY
ROOT Hips
{
	OFFSET 0 0 0
	CHANNELS 6 Xposition Yposition Zposition Yrotation Xrotation Zrotation
	JOINT Spine
	{
		OFFSET -0 7.96124 -2.53765
		CHANNELS 3 Yrotation Xrotation Zrotation
		JOINT Spine1
		{
			OFFSET -0 8.14037 0
			CHANNELS 3 Yrotation Xrotation Zrotation
			JOINT Spine2
			{
				OFFSET -0 8.14037 0
				CHANNELS 3 Yrotation Xrotation Zrotation
				JOINT Spine3
				{
					OFFSET -0 8.14037 0
					CHANNELS 3 Yrotation Xrotation Zrotation
					JOINT Neck
					{
						OFFSET -0 14.0192 3.53765
						CHANNELS 3 Yrotation Xrotation Zrotation
						JOINT Head
						{
							OFFSET -0 9.95155 0
							CHANNELS 3 Yrotation Xrotation Zrotation
							End Site
							{
								OFFSET 0 15 0
							}
						}
					}
					JOINT LeftShoulder
					{
						OFFSET 1.65859 2.44779 3.31718
						CHANNELS 3 Yrotation Xrotation Zrotation
						JOINT LeftArm
						{
							OFFSET 18.8215 0 0
							CHANNELS 3 Yrotation Xrotation Zrotation
							JOINT LeftForeArm
							{
								OFFSET 24.369 0 0
								CHANNELS 3 Yrotation Xrotation Zrotation
								JOINT LeftHand
								{
									OFFSET 20.693 0 0
									CHANNELS 3 Yrotation Xrotation Zrotation
									JOINT LeftHandThumb1
									{
										OFFSET 4.77279 0 2.93781
										CHANNELS 3 Yrotation Xrotation Zrotation
										JOINT LeftHandThumb2
										{
											OFFSET 3 0 1
											CHANNELS 3 Yrotation Xrotation Zrotation
											JOINT LeftHandThumb3
											{
												OFFSET 2.1 0 0
												CHANNELS 3 Yrotation Xrotation Zrotation
												JOINT LeftHandThumb4
												{
													OFFSET 1.305 0 0
													CHANNELS 3 Yrotation Xrotation Zrotation
													End Site
													{
														OFFSET -0 0 0
													}
												}
											}
										}
									}
									JOINT LeftHandIndex1
									{
										OFFSET 8.85787 0 3.70426
										CHANNELS 3 Yrotation Xrotation Zrotation
										JOINT LeftHandIndex2
										{
											OFFSET 3.5 0 0
											CHANNELS 3 Yrotation Xrotation Zrotation
											JOINT LeftHandIndex3
											{
												OFFSET 2.45 0 0
												CHANNELS 3 Yrotation Xrotation Zrotation
												JOINT LeftHandIndex4
												{
													OFFSET 1.5225 0 0
													CHANNELS 3 Yrotation Xrotation Zrotation
													End Site
													{
														OFFSET -0 0 0
													}
												}
											}
										}
									}
									JOINT LeftHandMiddle1
									{
										OFFSET 8.9513 0 1.15177
										CHANNELS 3 Yrotation Xrotation Zrotation
										JOINT LeftHandMiddle2
										{
											OFFSET 4.6 0 0
											CHANNELS 3 Yrotation Xrotation Zrotation
											JOINT LeftHandMiddle3
											{
												OFFSET 3.22 0 0
												CHANNELS 3 Yrotation Xrotation Zrotation
												JOINT LeftHandMiddle4
												{
													OFFSET 2.001 0 0
													CHANNELS 3 Yrotation Xrotation Zrotation
													End Site
													{
														OFFSET -0 0 0
													}
												}
											}
										}
									}
									JOINT LeftHandRing1
									{
										OFFSET 8.74474 0 -1.40072
										CHANNELS 3 Yrotation Xrotation Zrotation
										JOINT LeftHandRing2
										{
											OFFSET 3.75 0 0
											CHANNELS 3 Yrotation Xrotation Zrotation
											JOINT LeftHandRing3
											{
												OFFSET 2.625 0 0
												CHANNELS 3 Yrotation Xrotation Zrotation
												JOINT LeftHandRing4
												{
													OFFSET 1.63125 0 0
													CHANNELS 3 Yrotation Xrotation Zrotation
													End Site
													{
														OFFSET -0 0 0
													}
												}
											}
										}
									}
									JOINT LeftHandPinky1
									{
										OFFSET 8.23817 0 -3.95321
										CHANNELS 3 Yrotation Xrotation Zrotation
										JOINT LeftHandPinky2
										{
											OFFSET 2.875 0 0
											CHANNELS 3 Yrotation Xrotation Zrotation
											JOINT LeftHandPinky3
											{
												OFFSET 2.0125 0 0
												CHANNELS 3 Yrotation Xrotation Zrotation
												JOINT LeftHandPinky4
												{
													OFFSET 1.25062 0 0
													CHANNELS 3 Yrotation Xrotation Zrotation
													End Site
													{
														OFFSET -0 0 0
													}
												}
											}
										}
									}
								}
							}
						}
					}
					JOINT RightShoulder
					{
						OFFSET -1.65859 2.44779 3.31718
						CHANNELS 3 Yrotation Xrotation Zrotation
						JOINT RightArm
						{
							OFFSET -18.8215 0 0
							CHANNELS 3 Yrotation Xrotation Zrotation
							JOINT RightForeArm
							{
								OFFSET -24.369 0 0
								CHANNELS 3 Yrotation Xrotation Zrotation
								JOINT RightHand
								{
									OFFSET -20.693 0 0
									CHANNELS 3 Yrotation Xrotation Zrotation
									JOINT RightHandThumb1
									{
										OFFSET -4.49526 0 1.86793
										CHANNELS 3 Yrotation Xrotation Zrotation
										JOINT RightHandThumb2
										{
											OFFSET -3 0 1
											CHANNELS 3 Yrotation Xrotation Zrotation
											JOINT RightHandThumb3
											{
												OFFSET -2.1 0 0
												CHANNELS 3 Yrotation Xrotation Zrotation
												JOINT RightHandThumb4
												{
													OFFSET -1.305 0 0
													CHANNELS 3 Yrotation Xrotation Zrotation
													End Site
													{
														OFFSET -0 0 0
													}
												}
											}
										}
									}
									JOINT RightHandIndex1
									{
										OFFSET -9.23757 0 2.80764
										CHANNELS 3 Yrotation Xrotation Zrotation
										JOINT RightHandIndex2
										{
											OFFSET -3.5 0 0
											CHANNELS 3 Yrotation Xrotation Zrotation
											JOINT RightHandIndex3
											{
												OFFSET -2.45 0 0
												CHANNELS 3 Yrotation Xrotation Zrotation
												JOINT RightHandIndex4
												{
													OFFSET -1.5225 0 0
													CHANNELS 3 Yrotation Xrotation Zrotation
													End Site
													{
														OFFSET -0 0 0
													}
												}
											}
										}
									}
									JOINT RightHandMiddle1
									{
										OFFSET -8.70766 0 0.787911
										CHANNELS 3 Yrotation Xrotation Zrotation
										JOINT RightHandMiddle2
										{
											OFFSET -4.6 0 0
											CHANNELS 3 Yrotation Xrotation Zrotation
											JOINT RightHandMiddle3
											{
												OFFSET -3.22 0 0
												CHANNELS 3 Yrotation Xrotation Zrotation
												JOINT RightHandMiddle4
												{
													OFFSET -2.001 0 0
													CHANNELS 3 Yrotation Xrotation Zrotation
													End Site
													{
														OFFSET -0 0 0
													}
												}
											}
										}
									}
									JOINT RightHandRing1
									{
										OFFSET -7.87775 0 -1.23182
										CHANNELS 3 Yrotation Xrotation Zrotation
										JOINT RightHandRing2
										{
											OFFSET -3.75 0 0
											CHANNELS 3 Yrotation Xrotation Zrotation
											JOINT RightHandRing3
											{
												OFFSET -2.625 0 0
												CHANNELS 3 Yrotation Xrotation Zrotation
												JOINT RightHandRing4
												{
													OFFSET -1.63125 0 0
													CHANNELS 3 Yrotation Xrotation Zrotation
													End Site
													{
														OFFSET -0 0 0
													}
												}
											}
										}
									}
									JOINT RightHandPinky1
									{
										OFFSET -6.74784 0 -3.25155
										CHANNELS 3 Yrotation Xrotation Zrotation
										JOINT RightHandPinky2
										{
											OFFSET -2.875 0 0
											CHANNELS 3 Yrotation Xrotation Zrotation
											JOINT RightHandPinky3
											{
												OFFSET -2.0125 0 0
												CHANNELS 3 Yrotation Xrotation Zrotation
												JOINT RightHandPinky4
												{
													OFFSET -1.25062 0 0
													CHANNELS 3 Yrotation Xrotation Zrotation
													End Site
													{
														OFFSET -0 0 0
													}
												}
											}
										}
									}
								}
							}
						}
					}
				}
			}
		}
	}
	JOINT LeftUpLeg
	{
		OFFSET 9.95155 -3.31718 3
		CHANNELS 3 Yrotation Xrotation Zrotation
		JOINT LeftLeg
		{
			OFFSET -0 -43.2932 2.32203
			CHANNELS 3 Yrotation Xrotation Zrotation
			JOINT LeftFoot
			{
				OFFSET -0 -34.5003 -2.32203
				CHANNELS 3 Yrotation Xrotation Zrotation
				JOINT LeftToeBase
				{
					OFFSET -0 -8.48975 8.93072
					CHANNELS 3 Yrotation Xrotation Zrotation
					End Site
					{
						OFFSET 0 0 5
					}
				}
			}
		}
	}
	JOINT RightUpLeg
	{
		OFFSET -9.95155 -3.31718 3
		CHANNELS 3 Yrotation Xrotation Zrotation
		JOINT RightLeg
		{
			OFFSET -0 -43.2932 2.32203
			CHANNELS 3 Yrotation Xrotation Zrotation
			JOINT RightFoot
			{
				OFFSET -0 -34.5003 -2.32203
				CHANNELS 3 Yrotation Xrotation Zrotation
				JOINT RightToeBase
				{
					OFFSET -0 -8.48975 8.93072
					CHANNELS 3 Yrotation Xrotation Zrotation
					End Site
					{
						OFFSET 0 0 5
					}
				}
			}
		}
	}
}
MOTION
Frames: 5
Frame Time: 0.0047619
67.356750 89.248492 -26.575864 -18.575128 8.155127 1.997643 1.910863 1.882540 2.292701 1.727403 1.541578 1.663637 -0.008404 1.250358 0.981378 -0.445551 1.030520 0.363585 30.414361 4.821213 7.833053 14.517910 -11.711715 -8.199847 11.908559 -0.210164 10.152644 -34.982103 21.247249 -45.554123 -50.205020 -2.276002 -5.488863 66.485513 -46.472169 -69.211071 -180.000000 49.754467 -180.000000 32.194399 48.851911 5.473982 0.000000 3.546091 0.000000 -29.701473 -3.792306 21.471329 -34.204629 -3.378256 24.755596 -95.341095 -0.784975 -7.732949 0.000004 0.000001 12.499993 0.000004 0.000001 12.499993 0.000000 -0.000002 10.000000 -0.000001 0.000001 4.999999 0.000019 0.000019 11.926609 0.000019 0.000019 11.926609 0.000014 0.000015 9.541287 0.000007 0.000008 4.770648 0.000065 0.000055 -28.365320 0.000065 0.000055 -28.365320 0.000064 0.000013 -22.692244 0.000035 -0.000003 -11.346129 0.000072 0.000058 -43.947353 0.000072 0.000058 -43.947353 -0.703108 -10.395100 -12.184546 16.696951 -36.247660 -7.499266 28.371381 -16.773952 0.219084 -93.681703 -25.484048 81.994156 0.000076 0.000002 -35.157865 0.000027 -0.000025 -17.578943 -141.309938 -0.153758 -179.562042 8.199888 -18.982803 1.345946 9.466119 -21.840817 1.307947 -28.403421 -19.777887 7.640443 0.000006 0.000007 -12.500004 0.000006 0.000007 -12.500004 -0.000004 -0.000001 -10.000002 0.000003 0.000000 -5.000002 0.000002 0.000006 106.250007 0.000002 0.000006 106.250007 0.000004 -0.000002 84.999992 -0.000001 -0.000006 42.499994 -0.000030 0.000005 14.113942 -0.000030 0.000005 14.113942 -0.000014 0.000012 11.291152 -0.000014 -0.000019 5.645574 0.000006 0.000007 -12.500004 0.000006 0.000007 -12.500004 14.261564 -8.235852 -17.210814 0.000000 12.526177 0.000000 17.514249 -0.110030 7.870857 0.000000 -12.930793 0.000000 29.163961 -43.255919 -75.137521 -180.000000 49.754467 -180.000000 32.194399 48.851911 5.473982 0.000000 3.546091 0.000000
67.322443 89.250726 -26.599835 -18.578455 8.132933 2.005932 1.900975 1.875107 2.281168 1.718711 1.534561 1.657141 -0.006624 1.261945 0.981576 -0.446970 1.053625 0.366306 30.430360 4.833278 7.883773 14.525653 -11.690815 -8.201310 11.920015 -0.223457 10.161295 -34.936683 21.180832 -45.552323 -50.202396 -2.209866 -5.471755 66.710685 -46.667790 -69.220872 -180.000000 49.754467 -180.000000 32.194399 48.851911 5.473982 0.000000 3.546091 0.000000 -29.603771 -3.760899 21.475254 -34.091418 -3.345442 24.758809 -95.168100 -0.569435 -7.732790 0.000002 -0.000001 12.500002 0.000002 -0.000001 12.500002 0.000002 -0.000001 9.999992 -0.000006 0.000003 5.000009 0.000015 -0.000007 11.944745 0.000015 -0.000007 11.944745 0.000015 -0.000004 9.555792 0.000009 -0.000002 4.777896 0.000052 -0.000026 -28.305231 0.000052 -0.000026 -28.305231 0.000029 -0.000041 -22.644174 0.000009 -0.000024 -11.322094 0.000051 -0.000019 -43.897295 0.000051 -0.000019 -43.897295 -0.694954 -10.407873 -12.159079 16.713521 -36.274307 -7.459233 28.335887 -16.708430 0.277313 -93.882002 -24.964565 82.628320 0.000022 -0.000039 -35.117831 -0.000006 -0.000020 -17.558923 -141.310539 -0.153753 -179.562048 8.207876 -18.966825 1.238336 9.478568 -21.821141 1.183192 -28.426270 -19.627154 7.555716 -0.000001 0.000005 -12.500001 -0.000001 0.000005 -12.500001 0.000010 -0.000010 -9.999994 -0.000006 0.000004 -5.000005 0.000004 -0.000001 106.249998 0.000004 -0.000001 106.249998 -0.000001 -0.000001 84.999992 -0.000002 -0.000002 42.500018 0.000020 -0.000087 14.166996 0.000020 -0.000087 14.166996 0.000024 -0.000065 11.333595 0.000015 -0.000028 5.666802 -0.000001 0.000005 -12.500001 -0.000001 0.000005 -12.500001 14.256923 -8.249381 -17.197887 0.000000 12.546575 0.000000 17.559023 -0.034505 7.920425 0.000000 -13.023856 0.000000 29.131357 -43.390007 -75.147869 -180.000000 49.754467 -180.000000 32.194399 48.851911 5.473982 0.000000 3.546091 0.000000
67.284442 89.256873 -26.623798 -18.605303 8.106610 2.016913 1.905891 1.872275 2.256016 1.724561 1.536957 1.644638 -0.016584 1.282194 0.986288 -0.451478 1.065507 0.377621 30.472166 4.759768 7.927867 14.531189 -11.559575 -8.174812 11.955082 -0.237036 10.162784 -34.960551 21.157945 -45.561742 -50.178896 -2.215573 -5.405992 66.682296 -46.565161 -69.207532 -180.000000 49.754467 -180.000000 32.194399 48.851911 5.473982 0.000000 3.546091 0.000000 -29.603771 -3.760899 21.475254 -34.091418 -3.345442 24.758809 -95.168100 -0.569435 -7.732790 0.000002 -0.000001 12.500002 0.000002 -0.000001 12.500002 0.000002 -0.000001 9.999992 -0.000006 0.000003 5.000009 0.000015 -0.000007 11.944745 0.000015 -0.000007 11.944745 0.000015 -0.000004 9.555792 0.000009 -0.000002 4.777896 0.000052 -0.000026 -28.305231 0.000052 -0.000026 -28.305231 0.000029 -0.000041 -22.644174 0.000009 -0.000024 -11.322094 0.000051 -0.000019 -43.897295 0.000051 -0.000019 -43.897295 -0.709030 -10.414678 -12.103043 16.778142 -36.253262 -7.443048 28.300499 -16.611938 0.304261 -93.865370 -25.035180 82.719382 0.000022 -0.000039 -35.117831 -0.000006 -0.000020 -17.558923 -141.310539 -0.153753 -179.562048 8.207876 -18.966825 1.238336 9.478568 -21.821141 1.183192 -28.426270 -19.627154 7.555716 -0.000001 0.000005 -12.500001 -0.000001 0.000005 -12.500001 0.000010 -0.000010 -9.999994 -0.000006 0.000004 -5.000005 0.000004 -0.000001 106.249998 0.000004 -0.000001 106.249998 -0.000001 -0.000001 84.999992 -0.000002 -0.000002 42.500018 0.000020 -0.000087 14.166996 0.000020 -0.000087 14.166996 0.000024 -0.000065 11.333595 0.000015 -0.000028 5.666802 -0.000001 0.000005 -12.500001 -0.000001 0.000005 -12.500001 14.288537 -8.255815 -17.182827 0.000000 12.585473 0.000000 17.588253 0.025269 7.963584 0.000000 -13.101592 0.000000 29.108583 -43.534056 -75.140751 -180.000000 49.754467 -180.000000 32.194399 48.851911 5.473982 0.000000 3.546091 0.000000
67.248389 89.263147 -26.648904 -18.622677 8.085661 2.022891 1.888209 1.881784 2.245622 1.719002 1.514640 1.639711 -0.008018 1.288459 0.983805 -0.447873 1.087834 0.370565 30.521824 4.738200 7.989758 14.550418 -11.494234 -8.175850 11.981601 -0.236375 10.173053 -34.935183 21.103529 -45.564888 -50.144157 -2.220139 -5.354470 66.615363 -46.445147 -69.156480 -180.000000 49.754467 -180.000000 32.194399 48.851911 5.473982 0.000000 3.546091 0.000000 -29.603771 -3.760899 21.475254 -34.091418 -3.345442 24.758809 -95.168100 -0.569435 -7.732790 0.000002 -0.000001 12.500002 0.000002 -0.000001 12.500002 0.000002 -0.000001 9.999992 -0.000006 0.000003 5.000009 0.000015 -0.000007 11.944745 0.000015 -0.000007 11.944745 0.000015 -0.000004 9.555792 0.000009 -0.000002 4.777896 0.000052 -0.000026 -28.305231 0.000052 -0.000026 -28.305231 0.000029 -0.000041 -22.644174 0.000009 -0.000024 -11.322094 0.000051 -0.000019 -43.897295 0.000051 -0.000019 -43.897295 -0.691041 -10.426381 -12.076795 16.783720 -36.258528 -7.384118 28.341968 -16.711970 0.315381 -93.816140 -25.105079 82.556440 0.000022 -0.000039 -35.117831 -0.000006 -0.000020 -17.558923 -141.310539 -0.153753 -179.562048 8.207876 -18.966825 1.238336 9.478568 -21.821141 1.183192 -28.426270 -19.627154 7.555716 -0.000001 0.000005 -12.500001 -0.000001 0.000005 -12.500001 0.000010 -0.000010 -9.999994 -0.000006 0.000004 -5.000005 0.000004 -0.000001 106.249998 0.000004 -0.000001 106.249998 -0.000001 -0.000001 84.999992 -0.000002 -0.000002 42.500018 0.000020 -0.000087 14.166996 0.000020 -0.000087 14.166996 0.000024 -0.000065 11.333595 0.000015 -0.000028 5.666802 -0.000001 0.000005 -12.500001 -0.000001 0.000005 -12.500001 14.285098 -8.264435 -17.162443 0.000000 12.597087 0.000000 17.624522 0.085723 7.987814 0.000000 -13.141773 0.000000 29.077668 -43.649704 -75.150152 -180.000000 49.754467 -180.000000 32.194399 48.851911 5.473982 0.000000 3.546091 0.000000
67.208740 89.268915 -26.674963 -18.631854 8.064100 2.036391 1.885054 1.879153 2.221507 1.718072 1.511572 1.626068 -0.010442 1.291737 0.983113 -0.453282 1.106716 0.377367 30.539459 4.588679 8.040659 14.526055 -11.221262 -8.110170 11.992026 -0.235410 10.182396 -34.889497 21.057248 -45.551371 -50.137022 -2.238443 -5.338309 66.561435 -46.364497 -69.089651 -180.000000 49.754467 -180.000000 32.194399 48.851911 5.473982 0.000000 3.546091 0.000000 -29.603771 -3.760899 21.475254 -34.091418 -3.345442 24.758809 -95.168100 -0.569435 -7.732790 0.000002 -0.000001 12.500002 0.000002 -0.000001 12.500002 0.000002 -0.000001 9.999992 -0.000006 0.000003 5.000009 0.000015 -0.000007 11.944745 0.000015 -0.000007 11.944745 0.000015 -0.000004 9.555792 0.000009 -0.000002 4.777896 0.000052 -0.000026 -28.305231 0.000052 -0.000026 -28.305231 0.000029 -0.000041 -22.644174 0.000009 -0.000024 -11.322094 0.000051 -0.000019 -43.897295 0.000051 -0.000019 -43.897295 -0.701319 -10.407249 -12.040672 16.820142 -36.265903 -7.347167 28.363100 -16.806737 0.328630 -93.768295 -25.185410 82.430409 0.000022 -0.000039 -35.117831 -0.000006 -0.000020 -17.558923 -141.310539 -0.153753 -179.562048 8.207876 -18.966825 1.238336 9.478568 -21.821141 1.183192 -28.426270 -19.627154 7.555716 -0.000001 0.000005 -12.500001 -0.000001 0.000005 -12.500001 0.000010 -0.000010 -9.999994 -0.000006 0.000004 -5.000005 0.000004 -0.000001 106.249998 0.000004 -0.000001 106.249998 -0.000001 -0.000001 84.999992 -0.000002 -0.000002 42.500018 0.000020 -0.000087 14.166996 0.000020 -0.000087 14.166996 0.000024 -0.000065 11.333595 0.000015 -0.000028 5.666802 -0.000001 0.000005 -12.500001 -0.000001 0.000005 -12.500001 14.284014 -8.277215 -17.146659 0.000000 12.631020 0.000000 17.669703 0.222357 8.006307 0.000000 -13.337226 0.000000 29.037212 -43.753956 -75.169397 -180.000000 49.754467 -180.000000 32.194399 48.851911 5.473982 0.000000 3.546091 0.000000
